<svg width="106" height="106" viewBox="0 0 106 106" fill="none" xmlns="http://www.w3.org/2000/svg">
<path d="M44.2438 3.07019C44.2548 2.79427 44.4874 2.57949 44.7634 2.59049L49.2598 2.76957C49.5357 2.78059 49.7505 3.01314 49.7395 3.28908C49.7285 3.56502 49.4959 3.77975 49.22 3.7688L45.2231 3.60958L45.064 7.60643C45.053 7.88233 44.8203 8.0971 44.5444 8.08616C44.2685 8.07508 44.0538 7.84255 44.0647 7.56665L44.2438 3.07019ZM58.4419 104.45C64.5416 95.5718 71.0129 81.1339 70.9707 63.5186C70.9284 45.9171 64.3832 25.0962 44.3761 3.42929L45.1108 2.75092C65.2733 24.5861 71.9278 45.6434 71.9707 63.5162C72.0135 81.3753 65.4552 96.008 59.2661 105.016L58.4419 104.45Z" fill="white"/>
</svg>
