<svg width="104" height="74" viewBox="0 0 104 74" fill="none" xmlns="http://www.w3.org/2000/svg">
<path d="M9.63219 8.08355C9.45411 7.8725 9.48084 7.55704 9.6919 7.37897L13.1312 4.47704C13.3423 4.29896 13.6577 4.32569 13.8358 4.53675C14.0139 4.7478 13.9871 5.06325 13.7761 5.24133L10.7189 7.82082L13.2984 10.878C13.4765 11.089 13.4497 11.4045 13.2387 11.5826C13.0276 11.7606 12.7122 11.7339 12.5341 11.5229L9.63219 8.08355ZM88.5196 73.3236C87.0304 62.6552 82.064 47.633 70.1464 34.6611C58.2381 21.6993 39.3581 10.7496 9.97211 8.25933L10.0566 7.2629C39.6708 9.77251 58.791 20.8229 70.8828 33.9845C82.9653 47.136 87.999 62.3606 89.51 73.1854L88.5196 73.3236Z" fill="white"/>
</svg>
